<svg width="20" height="20" fill="none" xmlns="http://www.w3.org/2000/svg"><path d="M1.667 9.667c0-3.771 0-5.657 1.171-6.829C4.01 1.667 5.895 1.667 9.667 1.667h.666c3.772 0 5.657 0 6.829 1.171 1.171 1.172 1.171 3.058 1.171 6.829v.666c0 3.772 0 5.657-1.171 6.829-1.172 1.171-3.057 1.171-6.829 1.171h-.666c-3.772 0-5.657 0-6.829-1.171-1.171-1.172-1.171-3.057-1.171-6.829v-.666Z" fill="#07F"/><path d="M10.535 13.674c-3.799 0-5.965-2.605-6.056-6.938h1.903c.063 3.18 1.465 4.528 2.576 4.806V6.736h1.792V9.48c1.097-.118 2.25-1.368 2.639-2.743h1.792c-.299 1.695-1.549 2.945-2.438 3.458.889.417 2.313 1.507 2.854 3.48h-1.972c-.424-1.32-1.48-2.34-2.875-2.48v2.48h-.215Z" fill="#fff"/></svg>